================= Visit CBTorrents.com For More Exclusives ======================

Remember to signup on CBTorrents.com Its free and give you access to more Exclusives like this.


Royal Wedding Of William + Kate-Part1

 
http://www.bollywoodreleases.info/images/77673589104108836915.jpg


Format                           : Matroska
File size                        : 2.02 GiB
Duration                         : 1h 18mn
Overall bit rate                 : 3 690 Kbps

Video
Format                           : AVC
Format/Info                      : Advanced Video Codec
Format profile                   : High@L4.1
Format settings, CABAC           : No
Format settings, ReFrames        : 4 frames
Codec ID                         : V_MPEG4/ISO/AVC
Duration                         : 1h 18mn
Bit rate                         : 3 300 Kbps
Width                            : 1 280 pixels
Height                           : 720 pixels
Display aspect ratio             : 16:9
Frame rate                       : 25.000 fps
Color space                      : YUV
Chroma subsampling               : 4:2:0
Bit depth                        : 8 bits
Scan type                        : Progressive
Bits/(Pixel*Frame)               : 0.143
Stream size                      : 1.77 GiB (88%)
Writing library                  : x264 core 114 r1924 08d04a4

Audio
Format                           : AC-3
Format/Info                      : Audio Coding 3
Mode extension                   : CM (complete main)
Codec ID                         : A_AC3
Duration                         : 1h 18mn
Bit rate mode                    : Constant
Bit rate                         : 384 Kbps
Channel(s)                       : 6 channels
Channel positions                : Front: L C R, Side: L R, LFE
Sampling rate                    : 48.0 KHz
Bit depth                        : 16 bits
Compression mode                 : Lossy
Delay relative to video          : 32ms
Stream size                      : 215 MiB (10%)


Screens: 
http://www.bollywoodreleases.info/images/06368918985355735672.jpg 
http://www.bollywoodreleases.info/images/11807935735578946767.jpg 
http://www.bollywoodreleases.info/images/74257234874349514134.jpg 
http://www.bollywoodreleases.info/images/85229539082070549318.jpg 
http://www.bollywoodreleases.info/images/95898359773719474075.jpg

Credit to original Ripper



Remember to signup on CBTorrents.com Its free and give you access to more Exclusives like this.

================= Visit CBTorrents.com For More Exclusives ==================